<mxfile host="app.diagrams.net" agent="Mozilla/5.0 (X11; Ubuntu; Linux x86_64; rv:138.0) Gecko/20100101 Firefox/138.0" version="27.0.5">
  <diagram name="Page-1" id="9R6yXRowSwLRwM4YF0jt">
    <mxGraphModel dx="2231" dy="1020" grid="1" gridSize="10" guides="1" tooltips="1" connect="1" arrows="1" fold="1" page="1" pageScale="1" pageWidth="850" pageHeight="1100" math="0" shadow="0">
      <root>
        <mxCell id="0" />
        <mxCell id="1" parent="0" />
        <mxCell id="_LMe8sHWsWOSTw_ekPAe-2" value="user" style="rounded=0;whiteSpace=wrap;html=1;" parent="1" vertex="1">
          <mxGeometry x="7" y="31" width="120" height="20" as="geometry" />
        </mxCell>
        <mxCell id="_LMe8sHWsWOSTw_ekPAe-17" style="edgeStyle=orthogonalEdgeStyle;rounded=0;orthogonalLoop=1;jettySize=auto;html=1;exitX=0;exitY=0.5;exitDx=0;exitDy=0;" parent="1" source="_LMe8sHWsWOSTw_ekPAe-4" edge="1">
          <mxGeometry relative="1" as="geometry">
            <mxPoint x="282.17647058823536" y="111" as="targetPoint" />
          </mxGeometry>
        </mxCell>
        <mxCell id="_LMe8sHWsWOSTw_ekPAe-27" style="edgeStyle=orthogonalEdgeStyle;rounded=0;orthogonalLoop=1;jettySize=auto;html=1;exitX=1;exitY=0.5;exitDx=0;exitDy=0;" parent="1" source="_LMe8sHWsWOSTw_ekPAe-4" target="_LMe8sHWsWOSTw_ekPAe-12" edge="1">
          <mxGeometry relative="1" as="geometry" />
        </mxCell>
        <mxCell id="_LMe8sHWsWOSTw_ekPAe-4" value="loginpage" style="rounded=1;whiteSpace=wrap;html=1;fillColor=#60a917;fontColor=#ffffff;strokeColor=#2D7600;" parent="1" vertex="1">
          <mxGeometry x="282" y="91" width="120" height="40" as="geometry" />
        </mxCell>
        <mxCell id="-NJHEdXc2_ys1D_Juve5-9" style="edgeStyle=orthogonalEdgeStyle;rounded=0;orthogonalLoop=1;jettySize=auto;html=1;exitX=0.5;exitY=1;exitDx=0;exitDy=0;" edge="1" parent="1" source="_LMe8sHWsWOSTw_ekPAe-10" target="-NJHEdXc2_ys1D_Juve5-8">
          <mxGeometry relative="1" as="geometry" />
        </mxCell>
        <mxCell id="_LMe8sHWsWOSTw_ekPAe-10" value="login with mobile number" style="rounded=1;whiteSpace=wrap;html=1;fillColor=#e51400;fontColor=#ffffff;strokeColor=#B20000;" parent="1" vertex="1">
          <mxGeometry x="70" y="240" width="126" height="40" as="geometry" />
        </mxCell>
        <mxCell id="_LMe8sHWsWOSTw_ekPAe-11" value="&lt;div&gt;terms and condition&lt;/div&gt;&lt;div&gt;clickable&lt;/div&gt;" style="rounded=1;whiteSpace=wrap;html=1;fillColor=#60a917;fontColor=#ffffff;strokeColor=#2D7600;" parent="1" vertex="1">
          <mxGeometry x="422" y="181" width="120" height="40" as="geometry" />
        </mxCell>
        <mxCell id="_LMe8sHWsWOSTw_ekPAe-12" value="privacy policy" style="rounded=1;whiteSpace=wrap;html=1;fillColor=#60a917;fontColor=#ffffff;strokeColor=#2D7600;" parent="1" vertex="1">
          <mxGeometry x="562" y="181" width="120" height="40" as="geometry" />
        </mxCell>
        <mxCell id="_LMe8sHWsWOSTw_ekPAe-22" style="edgeStyle=orthogonalEdgeStyle;rounded=0;orthogonalLoop=1;jettySize=auto;html=1;exitX=0;exitY=0.5;exitDx=0;exitDy=0;entryX=0.5;entryY=0;entryDx=0;entryDy=0;" parent="1" source="_LMe8sHWsWOSTw_ekPAe-4" target="_LMe8sHWsWOSTw_ekPAe-10" edge="1">
          <mxGeometry relative="1" as="geometry">
            <mxPoint x="165.51999999999998" y="181.60000000000014" as="targetPoint" />
          </mxGeometry>
        </mxCell>
        <mxCell id="_LMe8sHWsWOSTw_ekPAe-26" style="edgeStyle=orthogonalEdgeStyle;rounded=0;orthogonalLoop=1;jettySize=auto;html=1;exitX=1;exitY=0.5;exitDx=0;exitDy=0;entryX=0.55;entryY=0.037;entryDx=0;entryDy=0;entryPerimeter=0;" parent="1" source="_LMe8sHWsWOSTw_ekPAe-4" target="_LMe8sHWsWOSTw_ekPAe-11" edge="1">
          <mxGeometry relative="1" as="geometry" />
        </mxCell>
        <mxCell id="_LMe8sHWsWOSTw_ekPAe-28" value="username" style="rounded=1;whiteSpace=wrap;html=1;fillColor=#60a917;fontColor=#ffffff;strokeColor=#2D7600;" parent="1" vertex="1">
          <mxGeometry x="450" y="320" width="120" height="40" as="geometry" />
        </mxCell>
        <mxCell id="_LMe8sHWsWOSTw_ekPAe-31" value="" style="rounded=1;whiteSpace=wrap;html=1;" parent="1" vertex="1">
          <mxGeometry x="430" y="380" width="180" height="60" as="geometry" />
        </mxCell>
        <mxCell id="_LMe8sHWsWOSTw_ekPAe-51" style="edgeStyle=orthogonalEdgeStyle;rounded=0;orthogonalLoop=1;jettySize=auto;html=1;exitX=1;exitY=0.5;exitDx=0;exitDy=0;" parent="1" source="_LMe8sHWsWOSTw_ekPAe-32" target="_LMe8sHWsWOSTw_ekPAe-50" edge="1">
          <mxGeometry relative="1" as="geometry" />
        </mxCell>
        <mxCell id="_LMe8sHWsWOSTw_ekPAe-32" value="PLHIV" style="rounded=1;whiteSpace=wrap;html=1;fillColor=#60a917;fontColor=#ffffff;strokeColor=#2D7600;" parent="1" vertex="1">
          <mxGeometry x="520" y="400" width="80" height="30" as="geometry" />
        </mxCell>
        <mxCell id="_LMe8sHWsWOSTw_ekPAe-49" style="edgeStyle=orthogonalEdgeStyle;rounded=0;orthogonalLoop=1;jettySize=auto;html=1;exitX=0.5;exitY=1;exitDx=0;exitDy=0;entryX=0.25;entryY=0;entryDx=0;entryDy=0;" parent="1" source="_LMe8sHWsWOSTw_ekPAe-33" target="_LMe8sHWsWOSTw_ekPAe-36" edge="1">
          <mxGeometry relative="1" as="geometry" />
        </mxCell>
        <mxCell id="_LMe8sHWsWOSTw_ekPAe-33" value="info seeker" style="rounded=1;whiteSpace=wrap;html=1;fillColor=#60a917;fontColor=#ffffff;strokeColor=#2D7600;" parent="1" vertex="1">
          <mxGeometry x="440" y="401" width="70" height="30" as="geometry" />
        </mxCell>
        <mxCell id="_LMe8sHWsWOSTw_ekPAe-34" value="user type" style="rounded=1;whiteSpace=wrap;html=1;strokeColor=none;" parent="1" vertex="1">
          <mxGeometry x="440" y="386" width="80" height="10" as="geometry" />
        </mxCell>
        <mxCell id="-NJHEdXc2_ys1D_Juve5-6" style="edgeStyle=orthogonalEdgeStyle;rounded=0;orthogonalLoop=1;jettySize=auto;html=1;exitX=0.5;exitY=1;exitDx=0;exitDy=0;" edge="1" parent="1" source="_LMe8sHWsWOSTw_ekPAe-36" target="-NJHEdXc2_ys1D_Juve5-5">
          <mxGeometry relative="1" as="geometry" />
        </mxCell>
        <mxCell id="_LMe8sHWsWOSTw_ekPAe-36" value="birthdate" style="rounded=1;whiteSpace=wrap;html=1;fillColor=#60a917;fontColor=#ffffff;strokeColor=#2D7600;" parent="1" vertex="1">
          <mxGeometry x="457.5" y="450" width="105" height="30" as="geometry" />
        </mxCell>
        <mxCell id="_LMe8sHWsWOSTw_ekPAe-37" value="location" style="rounded=1;whiteSpace=wrap;html=1;fillColor=#e51400;fontColor=#ffffff;strokeColor=#B20000;" parent="1" vertex="1">
          <mxGeometry x="458.75" y="560" width="102.5" height="30" as="geometry" />
        </mxCell>
        <mxCell id="_LMe8sHWsWOSTw_ekPAe-54" style="edgeStyle=orthogonalEdgeStyle;rounded=0;orthogonalLoop=1;jettySize=auto;html=1;exitX=0.5;exitY=1;exitDx=0;exitDy=0;entryX=0.5;entryY=0;entryDx=0;entryDy=0;" parent="1" source="-NJHEdXc2_ys1D_Juve5-36" target="_LMe8sHWsWOSTw_ekPAe-53" edge="1">
          <mxGeometry relative="1" as="geometry" />
        </mxCell>
        <mxCell id="_LMe8sHWsWOSTw_ekPAe-40" value="create password" style="rounded=1;whiteSpace=wrap;html=1;fillColor=#60a917;fontColor=#ffffff;strokeColor=#2D7600;" parent="1" vertex="1">
          <mxGeometry x="452.5" y="619.5" width="112.5" height="30" as="geometry" />
        </mxCell>
        <mxCell id="_LMe8sHWsWOSTw_ekPAe-42" style="edgeStyle=orthogonalEdgeStyle;rounded=0;orthogonalLoop=1;jettySize=auto;html=1;exitX=0.5;exitY=1;exitDx=0;exitDy=0;entryX=0.452;entryY=-0.005;entryDx=0;entryDy=0;entryPerimeter=0;" parent="1" source="_LMe8sHWsWOSTw_ekPAe-28" target="_LMe8sHWsWOSTw_ekPAe-31" edge="1">
          <mxGeometry relative="1" as="geometry" />
        </mxCell>
        <mxCell id="-NJHEdXc2_ys1D_Juve5-35" style="edgeStyle=orthogonalEdgeStyle;rounded=0;orthogonalLoop=1;jettySize=auto;html=1;exitX=0.5;exitY=1;exitDx=0;exitDy=0;entryX=0.5;entryY=0;entryDx=0;entryDy=0;" edge="1" parent="1" source="_LMe8sHWsWOSTw_ekPAe-50" target="-NJHEdXc2_ys1D_Juve5-17">
          <mxGeometry relative="1" as="geometry" />
        </mxCell>
        <mxCell id="_LMe8sHWsWOSTw_ekPAe-50" value="input hrn/confimation " style="rounded=1;whiteSpace=wrap;html=1;fillColor=#e51400;fontColor=#ffffff;strokeColor=#B20000;" parent="1" vertex="1">
          <mxGeometry x="637.75" y="440" width="80" height="30" as="geometry" />
        </mxCell>
        <mxCell id="_LMe8sHWsWOSTw_ekPAe-56" style="edgeStyle=orthogonalEdgeStyle;rounded=0;orthogonalLoop=1;jettySize=auto;html=1;exitX=0;exitY=0.5;exitDx=0;exitDy=0;entryX=1;entryY=0.5;entryDx=0;entryDy=0;" parent="1" source="_LMe8sHWsWOSTw_ekPAe-53" target="_LMe8sHWsWOSTw_ekPAe-55" edge="1">
          <mxGeometry relative="1" as="geometry" />
        </mxCell>
        <mxCell id="_LMe8sHWsWOSTw_ekPAe-53" value="welcome page" style="rounded=1;whiteSpace=wrap;html=1;fillColor=#60a917;fontColor=#ffffff;strokeColor=#2D7600;" parent="1" vertex="1">
          <mxGeometry x="450" y="780" width="112.5" height="30" as="geometry" />
        </mxCell>
        <mxCell id="_LMe8sHWsWOSTw_ekPAe-66" style="edgeStyle=orthogonalEdgeStyle;rounded=0;orthogonalLoop=1;jettySize=auto;html=1;exitX=0.25;exitY=1;exitDx=0;exitDy=0;" parent="1" source="_LMe8sHWsWOSTw_ekPAe-55" target="_LMe8sHWsWOSTw_ekPAe-62" edge="1">
          <mxGeometry relative="1" as="geometry" />
        </mxCell>
        <mxCell id="_LMe8sHWsWOSTw_ekPAe-68" style="edgeStyle=orthogonalEdgeStyle;rounded=0;orthogonalLoop=1;jettySize=auto;html=1;exitX=0.25;exitY=1;exitDx=0;exitDy=0;" parent="1" source="_LMe8sHWsWOSTw_ekPAe-55" target="_LMe8sHWsWOSTw_ekPAe-63" edge="1">
          <mxGeometry relative="1" as="geometry" />
        </mxCell>
        <mxCell id="_LMe8sHWsWOSTw_ekPAe-69" style="edgeStyle=orthogonalEdgeStyle;rounded=0;orthogonalLoop=1;jettySize=auto;html=1;exitX=0.25;exitY=1;exitDx=0;exitDy=0;entryX=0.5;entryY=0;entryDx=0;entryDy=0;" parent="1" source="_LMe8sHWsWOSTw_ekPAe-55" target="_LMe8sHWsWOSTw_ekPAe-60" edge="1">
          <mxGeometry relative="1" as="geometry" />
        </mxCell>
        <mxCell id="_LMe8sHWsWOSTw_ekPAe-55" value="homepage" style="rounded=1;whiteSpace=wrap;html=1;fillColor=#60a917;fontColor=#ffffff;strokeColor=#2D7600;" parent="1" vertex="1">
          <mxGeometry x="72" y="535" width="100" height="30" as="geometry" />
        </mxCell>
        <mxCell id="_LMe8sHWsWOSTw_ekPAe-59" style="edgeStyle=orthogonalEdgeStyle;rounded=0;orthogonalLoop=1;jettySize=auto;html=1;exitX=0.5;exitY=1;exitDx=0;exitDy=0;entryX=0.5;entryY=0;entryDx=0;entryDy=0;" parent="1" source="_LMe8sHWsWOSTw_ekPAe-58" target="_LMe8sHWsWOSTw_ekPAe-4" edge="1">
          <mxGeometry relative="1" as="geometry" />
        </mxCell>
        <mxCell id="_LMe8sHWsWOSTw_ekPAe-58" value="onboardScreen" style="rounded=1;whiteSpace=wrap;html=1;fillColor=#60a917;fontColor=#ffffff;strokeColor=#2D7600;" parent="1" vertex="1">
          <mxGeometry x="282" y="21" width="120" height="40" as="geometry" />
        </mxCell>
        <mxCell id="_LMe8sHWsWOSTw_ekPAe-60" value="profile" style="rounded=1;whiteSpace=wrap;html=1;fillColor=#e3c800;fontColor=#000000;strokeColor=#B09500;" parent="1" vertex="1">
          <mxGeometry x="-270" y="640" width="100" height="30" as="geometry" />
        </mxCell>
        <mxCell id="_LMe8sHWsWOSTw_ekPAe-61" value="forum" style="rounded=1;whiteSpace=wrap;html=1;fillColor=#60a917;fontColor=#ffffff;strokeColor=#2D7600;" parent="1" vertex="1">
          <mxGeometry x="-152" y="640" width="100" height="30" as="geometry" />
        </mxCell>
        <mxCell id="_LMe8sHWsWOSTw_ekPAe-62" value="notification" style="rounded=1;whiteSpace=wrap;html=1;fillColor=#e51400;fontColor=#ffffff;strokeColor=#B20000;" parent="1" vertex="1">
          <mxGeometry x="-43" y="640" width="100" height="30" as="geometry" />
        </mxCell>
        <mxCell id="_LMe8sHWsWOSTw_ekPAe-75" style="edgeStyle=orthogonalEdgeStyle;rounded=0;orthogonalLoop=1;jettySize=auto;html=1;exitX=0.25;exitY=1;exitDx=0;exitDy=0;entryX=0;entryY=0.5;entryDx=0;entryDy=0;" parent="1" source="_LMe8sHWsWOSTw_ekPAe-63" target="_LMe8sHWsWOSTw_ekPAe-74" edge="1">
          <mxGeometry relative="1" as="geometry" />
        </mxCell>
        <mxCell id="_LMe8sHWsWOSTw_ekPAe-76" style="edgeStyle=orthogonalEdgeStyle;rounded=0;orthogonalLoop=1;jettySize=auto;html=1;exitX=0.25;exitY=1;exitDx=0;exitDy=0;entryX=0;entryY=0.5;entryDx=0;entryDy=0;" parent="1" source="_LMe8sHWsWOSTw_ekPAe-63" target="_LMe8sHWsWOSTw_ekPAe-73" edge="1">
          <mxGeometry relative="1" as="geometry" />
        </mxCell>
        <mxCell id="_LMe8sHWsWOSTw_ekPAe-77" style="edgeStyle=orthogonalEdgeStyle;rounded=0;orthogonalLoop=1;jettySize=auto;html=1;exitX=0.25;exitY=1;exitDx=0;exitDy=0;entryX=0;entryY=0.25;entryDx=0;entryDy=0;" parent="1" source="_LMe8sHWsWOSTw_ekPAe-63" target="_LMe8sHWsWOSTw_ekPAe-72" edge="1">
          <mxGeometry relative="1" as="geometry" />
        </mxCell>
        <mxCell id="_LMe8sHWsWOSTw_ekPAe-78" style="edgeStyle=orthogonalEdgeStyle;rounded=0;orthogonalLoop=1;jettySize=auto;html=1;exitX=0.25;exitY=1;exitDx=0;exitDy=0;entryX=0;entryY=0.5;entryDx=0;entryDy=0;" parent="1" source="_LMe8sHWsWOSTw_ekPAe-63" target="_LMe8sHWsWOSTw_ekPAe-71" edge="1">
          <mxGeometry relative="1" as="geometry" />
        </mxCell>
        <mxCell id="_LMe8sHWsWOSTw_ekPAe-79" style="edgeStyle=orthogonalEdgeStyle;rounded=0;orthogonalLoop=1;jettySize=auto;html=1;exitX=0.25;exitY=1;exitDx=0;exitDy=0;entryX=0;entryY=0.75;entryDx=0;entryDy=0;" parent="1" source="_LMe8sHWsWOSTw_ekPAe-63" target="_LMe8sHWsWOSTw_ekPAe-70" edge="1">
          <mxGeometry relative="1" as="geometry" />
        </mxCell>
        <mxCell id="-NJHEdXc2_ys1D_Juve5-16" style="edgeStyle=orthogonalEdgeStyle;rounded=0;orthogonalLoop=1;jettySize=auto;html=1;exitX=0.25;exitY=1;exitDx=0;exitDy=0;entryX=0;entryY=0.5;entryDx=0;entryDy=0;" edge="1" parent="1" source="_LMe8sHWsWOSTw_ekPAe-63" target="-NJHEdXc2_ys1D_Juve5-15">
          <mxGeometry relative="1" as="geometry" />
        </mxCell>
        <mxCell id="_LMe8sHWsWOSTw_ekPAe-63" value="menu" style="rounded=1;whiteSpace=wrap;html=1;fillColor=#60a917;fontColor=#ffffff;strokeColor=#2D7600;" parent="1" vertex="1">
          <mxGeometry x="68.25" y="640" width="100" height="30" as="geometry" />
        </mxCell>
        <mxCell id="_LMe8sHWsWOSTw_ekPAe-65" style="edgeStyle=orthogonalEdgeStyle;rounded=0;orthogonalLoop=1;jettySize=auto;html=1;exitX=0.25;exitY=1;exitDx=0;exitDy=0;entryX=0.451;entryY=0.006;entryDx=0;entryDy=0;entryPerimeter=0;" parent="1" source="_LMe8sHWsWOSTw_ekPAe-55" target="_LMe8sHWsWOSTw_ekPAe-61" edge="1">
          <mxGeometry relative="1" as="geometry">
            <mxPoint x="69" y="790" as="targetPoint" />
          </mxGeometry>
        </mxCell>
        <mxCell id="_LMe8sHWsWOSTw_ekPAe-70" value="logout" style="rounded=1;whiteSpace=wrap;html=1;fillColor=#60a917;fontColor=#ffffff;strokeColor=#2D7600;" parent="1" vertex="1">
          <mxGeometry x="112" y="690" width="100" height="30" as="geometry" />
        </mxCell>
        <mxCell id="_LMe8sHWsWOSTw_ekPAe-71" value="insight" style="rounded=1;whiteSpace=wrap;html=1;fillColor=#60a917;fontColor=#ffffff;strokeColor=#2D7600;" parent="1" vertex="1">
          <mxGeometry x="112" y="740" width="100" height="30" as="geometry" />
        </mxCell>
        <mxCell id="_LMe8sHWsWOSTw_ekPAe-72" value="terms and condition" style="rounded=1;whiteSpace=wrap;html=1;fillColor=#60a917;fontColor=#ffffff;strokeColor=#2D7600;" parent="1" vertex="1">
          <mxGeometry x="112" y="790" width="100" height="30" as="geometry" />
        </mxCell>
        <mxCell id="_LMe8sHWsWOSTw_ekPAe-73" value="about echo" style="rounded=1;whiteSpace=wrap;html=1;fillColor=#e51400;fontColor=#ffffff;strokeColor=#B20000;" parent="1" vertex="1">
          <mxGeometry x="112" y="840" width="100" height="30" as="geometry" />
        </mxCell>
        <mxCell id="_LMe8sHWsWOSTw_ekPAe-74" value="feedback" style="rounded=1;whiteSpace=wrap;html=1;fillColor=#e51400;fontColor=#ffffff;strokeColor=#B20000;" parent="1" vertex="1">
          <mxGeometry x="113" y="890" width="100" height="30" as="geometry" />
        </mxCell>
        <mxCell id="-NJHEdXc2_ys1D_Juve5-4" style="edgeStyle=orthogonalEdgeStyle;rounded=0;orthogonalLoop=1;jettySize=auto;html=1;exitX=0.5;exitY=1;exitDx=0;exitDy=0;entryX=0.5;entryY=0;entryDx=0;entryDy=0;" edge="1" parent="1" source="-NJHEdXc2_ys1D_Juve5-2" target="_LMe8sHWsWOSTw_ekPAe-28">
          <mxGeometry relative="1" as="geometry" />
        </mxCell>
        <mxCell id="-NJHEdXc2_ys1D_Juve5-2" value="&lt;div&gt;&lt;font style=&quot;font-size: 11px;&quot;&gt;terms and condition scrollable confirmation&lt;/font&gt;&lt;/div&gt;" style="rounded=1;whiteSpace=wrap;html=1;fillColor=#e51400;fontColor=#ffffff;strokeColor=#B20000;" vertex="1" parent="1">
          <mxGeometry x="448.75" y="260" width="120" height="40" as="geometry" />
        </mxCell>
        <mxCell id="-NJHEdXc2_ys1D_Juve5-7" style="edgeStyle=orthogonalEdgeStyle;rounded=0;orthogonalLoop=1;jettySize=auto;html=1;exitX=0.5;exitY=1;exitDx=0;exitDy=0;" edge="1" parent="1" source="-NJHEdXc2_ys1D_Juve5-5" target="_LMe8sHWsWOSTw_ekPAe-37">
          <mxGeometry relative="1" as="geometry" />
        </mxCell>
        <mxCell id="-NJHEdXc2_ys1D_Juve5-5" value="gender" style="rounded=1;whiteSpace=wrap;html=1;fillColor=#60a917;fontColor=#ffffff;strokeColor=#2D7600;" vertex="1" parent="1">
          <mxGeometry x="458.5" y="510" width="102.5" height="30" as="geometry" />
        </mxCell>
        <mxCell id="-NJHEdXc2_ys1D_Juve5-34" style="edgeStyle=orthogonalEdgeStyle;rounded=0;orthogonalLoop=1;jettySize=auto;html=1;exitX=0.5;exitY=1;exitDx=0;exitDy=0;entryX=0;entryY=0.5;entryDx=0;entryDy=0;" edge="1" parent="1" source="-NJHEdXc2_ys1D_Juve5-8" target="-NJHEdXc2_ys1D_Juve5-28">
          <mxGeometry relative="1" as="geometry" />
        </mxCell>
        <mxCell id="-NJHEdXc2_ys1D_Juve5-8" value="otp" style="rounded=1;whiteSpace=wrap;html=1;fillColor=#e51400;fontColor=#ffffff;strokeColor=#B20000;" vertex="1" parent="1">
          <mxGeometry x="70" y="310" width="126" height="40" as="geometry" />
        </mxCell>
        <mxCell id="-NJHEdXc2_ys1D_Juve5-14" value="edit profile" style="rounded=1;whiteSpace=wrap;html=1;fillColor=#e3c800;fontColor=#000000;strokeColor=#B09500;" vertex="1" parent="1">
          <mxGeometry x="-270" y="690" width="100" height="30" as="geometry" />
        </mxCell>
        <mxCell id="-NJHEdXc2_ys1D_Juve5-15" value="privacy policy" style="rounded=1;whiteSpace=wrap;html=1;fillColor=#e51400;fontColor=#ffffff;strokeColor=#B20000;" vertex="1" parent="1">
          <mxGeometry x="113.25" y="937" width="100" height="30" as="geometry" />
        </mxCell>
        <mxCell id="-NJHEdXc2_ys1D_Juve5-18" style="edgeStyle=orthogonalEdgeStyle;rounded=0;orthogonalLoop=1;jettySize=auto;html=1;entryX=1;entryY=0.25;entryDx=0;entryDy=0;" edge="1" parent="1" source="-NJHEdXc2_ys1D_Juve5-38" target="_LMe8sHWsWOSTw_ekPAe-36">
          <mxGeometry relative="1" as="geometry" />
        </mxCell>
        <mxCell id="-NJHEdXc2_ys1D_Juve5-39" style="edgeStyle=orthogonalEdgeStyle;rounded=0;orthogonalLoop=1;jettySize=auto;html=1;exitX=0.5;exitY=1;exitDx=0;exitDy=0;entryX=1;entryY=0.5;entryDx=0;entryDy=0;" edge="1" parent="1" source="-NJHEdXc2_ys1D_Juve5-17" target="-NJHEdXc2_ys1D_Juve5-38">
          <mxGeometry relative="1" as="geometry" />
        </mxCell>
        <mxCell id="-NJHEdXc2_ys1D_Juve5-17" value="art" style="rounded=1;whiteSpace=wrap;html=1;fillColor=#e51400;fontColor=#ffffff;strokeColor=#B20000;" vertex="1" parent="1">
          <mxGeometry x="717.75" y="530" width="80" height="30" as="geometry" />
        </mxCell>
        <mxCell id="-NJHEdXc2_ys1D_Juve5-22" style="edgeStyle=orthogonalEdgeStyle;rounded=0;orthogonalLoop=1;jettySize=auto;html=1;exitX=0.5;exitY=1;exitDx=0;exitDy=0;entryX=0.5;entryY=0;entryDx=0;entryDy=0;" edge="1" parent="1" source="-NJHEdXc2_ys1D_Juve5-20" target="_LMe8sHWsWOSTw_ekPAe-55">
          <mxGeometry relative="1" as="geometry" />
        </mxCell>
        <mxCell id="-NJHEdXc2_ys1D_Juve5-20" value="mobile pin" style="rounded=1;whiteSpace=wrap;html=1;fillColor=#e51400;fontColor=#ffffff;strokeColor=#B20000;" vertex="1" parent="1">
          <mxGeometry x="50" y="470" width="126" height="40" as="geometry" />
        </mxCell>
        <mxCell id="-NJHEdXc2_ys1D_Juve5-24" style="edgeStyle=orthogonalEdgeStyle;rounded=0;orthogonalLoop=1;jettySize=auto;html=1;exitX=0.5;exitY=1;exitDx=0;exitDy=0;entryX=0.5;entryY=0;entryDx=0;entryDy=0;" edge="1" parent="1" source="_LMe8sHWsWOSTw_ekPAe-37" target="_LMe8sHWsWOSTw_ekPAe-40">
          <mxGeometry relative="1" as="geometry">
            <mxPoint x="510.1374999999998" y="610" as="targetPoint" />
          </mxGeometry>
        </mxCell>
        <mxCell id="-NJHEdXc2_ys1D_Juve5-29" style="edgeStyle=orthogonalEdgeStyle;rounded=0;orthogonalLoop=1;jettySize=auto;html=1;exitX=1;exitY=0.5;exitDx=0;exitDy=0;entryX=0;entryY=0.5;entryDx=0;entryDy=0;" edge="1" parent="1" source="-NJHEdXc2_ys1D_Juve5-28" target="-NJHEdXc2_ys1D_Juve5-2">
          <mxGeometry relative="1" as="geometry" />
        </mxCell>
        <mxCell id="-NJHEdXc2_ys1D_Juve5-32" value="no" style="edgeLabel;html=1;align=center;verticalAlign=middle;resizable=0;points=[];" vertex="1" connectable="0" parent="-NJHEdXc2_ys1D_Juve5-29">
          <mxGeometry x="-0.2681" y="-1" relative="1" as="geometry">
            <mxPoint as="offset" />
          </mxGeometry>
        </mxCell>
        <mxCell id="-NJHEdXc2_ys1D_Juve5-30" style="edgeStyle=orthogonalEdgeStyle;rounded=0;orthogonalLoop=1;jettySize=auto;html=1;exitX=0.5;exitY=1;exitDx=0;exitDy=0;entryX=0.75;entryY=0;entryDx=0;entryDy=0;" edge="1" parent="1" source="-NJHEdXc2_ys1D_Juve5-28" target="-NJHEdXc2_ys1D_Juve5-20">
          <mxGeometry relative="1" as="geometry" />
        </mxCell>
        <mxCell id="-NJHEdXc2_ys1D_Juve5-33" value="yes" style="edgeLabel;html=1;align=center;verticalAlign=middle;resizable=0;points=[];" vertex="1" connectable="0" parent="-NJHEdXc2_ys1D_Juve5-30">
          <mxGeometry x="-0.5605" y="2" relative="1" as="geometry">
            <mxPoint as="offset" />
          </mxGeometry>
        </mxCell>
        <mxCell id="-NJHEdXc2_ys1D_Juve5-28" value="is number already registered?" style="rhombus;whiteSpace=wrap;html=1;" vertex="1" parent="1">
          <mxGeometry x="285" y="310" width="117" height="119" as="geometry" />
        </mxCell>
        <mxCell id="-NJHEdXc2_ys1D_Juve5-37" value="" style="edgeStyle=orthogonalEdgeStyle;rounded=0;orthogonalLoop=1;jettySize=auto;html=1;exitX=0.5;exitY=1;exitDx=0;exitDy=0;entryX=0.5;entryY=0;entryDx=0;entryDy=0;" edge="1" parent="1" source="_LMe8sHWsWOSTw_ekPAe-40" target="-NJHEdXc2_ys1D_Juve5-36">
          <mxGeometry relative="1" as="geometry">
            <mxPoint x="509" y="650" as="sourcePoint" />
            <mxPoint x="509" y="730" as="targetPoint" />
          </mxGeometry>
        </mxCell>
        <mxCell id="-NJHEdXc2_ys1D_Juve5-36" value="confirm password" style="rounded=1;whiteSpace=wrap;html=1;fillColor=#60a917;fontColor=#ffffff;strokeColor=#2D7600;" vertex="1" parent="1">
          <mxGeometry x="448.5" y="680" width="112.5" height="30" as="geometry" />
        </mxCell>
        <mxCell id="-NJHEdXc2_ys1D_Juve5-38" value="viral load" style="rounded=1;whiteSpace=wrap;html=1;fillColor=#e51400;fontColor=#ffffff;strokeColor=#B20000;" vertex="1" parent="1">
          <mxGeometry x="630" y="580" width="80" height="30" as="geometry" />
        </mxCell>
      </root>
    </mxGraphModel>
  </diagram>
</mxfile>
